<svg xmlns="http://www.w3.org/2000/svg" width="353" height="249.609" viewBox="0 0 353 249.609">
  <g id="Tracé_2" data-name="Tracé 2" fill="none">
    <path d="M176.5,0A176.5,176.5,0,0,1,353,176.5c0,97.478-353,97.478-353,0A176.5,176.5,0,0,1,176.5,0Z" stroke="none"/>
    <path d="M 176.5 1.999969482421875 C 164.6590881347656 1.999969482421875 152.8262329101563 3.1927490234375 141.3300476074219 5.545257568359375 C 130.1270904541016 7.83770751953125 119.1074981689453 11.25839233398438 108.5773620605469 15.71224975585938 C 98.23796081542969 20.08543395996094 88.26541137695313 25.49839782714844 78.93682861328125 31.8006591796875 C 69.69625854492188 38.04344177246094 61.00686645507813 45.212890625 53.10986328125 53.10984802246094 C 45.21292114257813 61.00685119628906 38.04345703125 69.69625854492188 31.80068969726563 78.93679809570313 C 25.4984130859375 88.26539611816406 20.08544921875 98.23794555664063 15.7122802734375 108.5773468017578 C 11.2584228515625 119.1074829101563 7.837738037109375 130.1270751953125 5.545257568359375 141.3300323486328 C 3.192779541015625 152.8262023925781 2 164.6590728759766 2 176.4999847412109 C 2 182.1411743164063 3.266357421875 187.6125183105469 5.76385498046875 192.7620849609375 C 8.182952880859375 197.7498931884766 11.80960083007813 202.5512084960938 16.54299926757813 207.03271484375 C 25.66110229492188 215.6654815673828 38.885009765625 223.2093505859375 55.84725952148438 229.4546661376953 C 63.90118408203125 232.4200286865234 72.81503295898438 235.0876617431641 82.34112548828125 237.3834381103516 C 91.62869262695313 239.6217041015625 101.6015930175781 241.5317993164063 111.9828186035156 243.0607147216797 C 122.1742248535156 244.5616607666016 132.8516845703125 245.7091217041016 143.7185516357422 246.4712524414063 C 154.4803161621094 247.2259826660156 165.5095977783203 247.6086730957031 176.5 247.6086730957031 C 187.4904022216797 247.6086730957031 198.5196838378906 247.2259826660156 209.2814483642578 246.4712524414063 C 220.1483154296875 245.7091217041016 230.8257751464844 244.5616607666016 241.0171813964844 243.0607147216797 C 251.3984069824219 241.5317993164063 261.3713073730469 239.6217041015625 270.6588745117188 237.3834381103516 C 280.1849365234375 235.0876617431641 289.0988159179688 232.4200286865234 297.1527404785156 229.4546661376953 C 314.114990234375 223.2093505859375 327.3388977050781 215.6654815673828 336.4570007324219 207.03271484375 C 341.1903991699219 202.5512084960938 344.8170471191406 197.7498931884766 347.2361450195313 192.7620849609375 C 349.733642578125 187.6125183105469 351 182.1411743164063 351 176.4999847412109 C 351 164.6590728759766 349.8072204589844 152.8262023925781 347.4547119140625 141.3300323486328 C 345.1622619628906 130.1270751953125 341.7415771484375 119.1074829101563 337.2877197265625 108.5773468017578 C 332.91455078125 98.23794555664063 327.5015869140625 88.26539611816406 321.1993103027344 78.93679809570313 C 314.95654296875 69.69625854492188 307.7870788574219 61.00685119628906 299.89013671875 53.10984802246094 C 291.9931335449219 45.212890625 283.3037109375 38.04344177246094 274.0631713867188 31.8006591796875 C 264.7345886230469 25.49839782714844 254.7620544433594 20.08543395996094 244.4226379394531 15.71224975585938 C 233.8925018310547 11.25839233398438 222.8729095458984 7.83770751953125 211.6699523925781 5.545257568359375 C 200.1737670898438 3.1927490234375 188.3409118652344 1.999969482421875 176.5 1.999969482421875 M 176.5 -3.0517578125e-05 C 273.9782104492188 -3.0517578125e-05 353 79.02175903320313 353 176.4999847412109 C 353 225.2391204833984 264.75 249.6086883544922 176.5 249.6086883544922 C 88.25 249.6086883544922 0 225.2391204833984 0 176.4999847412109 C 0 79.02175903320313 79.02175903320313 -3.0517578125e-05 176.5 -3.0517578125e-05 Z" stroke="none" fill="#fff"/>
  </g>
</svg>
